<?xml version="1.0" encoding="UTF-8" standalone="no"?>
<!-- Created with Inkscape (http://www.inkscape.org/) -->

<svg
   width="300mm"
   height="60mm"
   viewBox="0 0 300 60"
   version="1.1"
   id="svg1"
   inkscape:version="1.4 (e7c3feb100, 2024-10-09)"
   sodipodi:docname="kagesenshi_org_white.svg"
   xmlns:inkscape="http://www.inkscape.org/namespaces/inkscape"
   xmlns:sodipodi="http://sodipodi.sourceforge.net/DTD/sodipodi-0.dtd"
   xmlns="http://www.w3.org/2000/svg"
   xmlns:svg="http://www.w3.org/2000/svg">
  <sodipodi:namedview
     id="namedview1"
     pagecolor="#ffffff"
     bordercolor="#666666"
     borderopacity="1.0"
     inkscape:showpageshadow="2"
     inkscape:pageopacity="0.0"
     inkscape:pagecheckerboard="0"
     inkscape:deskcolor="#d1d1d1"
     inkscape:document-units="mm"
     inkscape:zoom="0.76078844"
     inkscape:cx="447.56201"
     inkscape:cy="-110.41177"
     inkscape:window-width="1920"
     inkscape:window-height="1043"
     inkscape:window-x="0"
     inkscape:window-y="0"
     inkscape:window-maximized="1"
     inkscape:current-layer="g1" />
  <defs
     id="defs1" />
  <g
     inkscape:label="Layer 1"
     inkscape:groupmode="layer"
     id="layer1"
     transform="translate(-18.725751,-45.30378)">
    <g
       id="g1"
       transform="translate(12.053145,2.7040205)">
      <path
         id="path9489"
         style="fill:#ffffff;stroke-width:0.0899739"
         d="M 46.021732,58.631901 A 13.967898,13.967898 0 0 0 32.053872,72.599758 13.967898,13.967898 0 0 0 46.021732,86.567617 13.967898,13.967898 0 0 0 59.989587,72.599758 13.967898,13.967898 0 0 0 46.021732,58.631901 Z m 0,0.363714 c 1.297017,2.246543 2.594209,4.493026 3.891186,6.739573 0.409874,0.710208 0.819905,1.42025 1.229892,2.130396 0.489387,0.847582 0.978733,1.695251 1.468085,2.542851 -0.384783,0.666428 -0.769531,1.332802 -1.154291,1.999245 -0.03679,-0.06373 -0.07354,-0.12743 -0.110322,-0.191157 L 48.97232,68.104697 c -0.27649,-0.478036 -0.55276,-0.957033 -0.829103,-1.435462 -0.195826,-0.33907 -0.391489,-0.678199 -0.587365,-1.017245 -0.511464,-0.885738 -1.02271,-1.771592 -1.53412,-2.657361 -0.510369,0.883972 -1.020756,1.768003 -1.531109,2.651987 h -2.308848 c 1.280011,-2.217001 2.559967,-4.433988 3.839957,-6.651001 z M 34.264191,65.8383 h 13.178331 c 0.384888,0.666509 0.769799,1.332999 1.154684,1.999511 -3.62312,8.1e-5 -7.246229,6.5e-5 -10.869349,1.28e-4 0.49458,0.856744 0.989094,1.713492 1.483677,2.570234 -0.384814,0.666571 -0.769599,1.333201 -1.154422,1.999769 -0.03679,-0.06373 -0.07353,-0.127555 -0.110322,-0.191288 -1.227505,-2.126151 -2.455081,-4.252212 -3.682599,-6.378354 z m 15.929501,0 h 7.585704 c -1.255141,2.174264 -2.51021,4.348506 -3.765404,6.522738 -0.398046,0.689035 -0.795796,1.378277 -1.19373,2.067375 -0.47929,0.830622 -0.95922,1.661236 -1.438738,2.491886 -0.04788,0.08294 -0.09573,0.165981 -0.143594,0.248938 h -2.309503 c 0.0368,-0.06373 0.07366,-0.127565 0.110453,-0.191294 0.800118,-1.385811 1.600365,-2.771572 2.400428,-4.157417 0.256849,-0.445712 0.514291,-0.890991 0.771446,-1.336541 0.200601,-0.347437 0.401242,-0.694881 0.601909,-1.042271 0.50104,-0.867943 1.002117,-1.735858 1.503201,-2.603775 H 51.348117 C 50.963294,67.171368 50.578487,66.504887 50.193692,65.8383 Z m -9.387635,2.191192 h 2.308844 c -0.877099,1.518974 -1.754136,3.03809 -2.631286,4.557033 -0.372739,0.645577 -0.745402,1.291166 -1.118132,1.936748 -0.08022,0.139759 -0.161879,0.280253 -0.242649,0.420314 -0.465318,0.805793 -0.930711,1.611542 -1.396025,2.417331 h 2.968795 c 0.384789,0.666537 0.769524,1.333086 1.154294,1.999638 H 34.26406 c 0.0368,-0.06373 0.07366,-0.12743 0.11045,-0.19116 1.23992,-2.147588 2.479718,-4.295255 3.719679,-6.44281 0.43379,-0.75151 0.867683,-1.50288 1.301561,-2.254347 0.365951,-0.633623 0.732067,-1.268083 1.098083,-1.902024 0.104052,-0.180234 0.208169,-0.360496 0.312224,-0.540723 z m 1.912639,1.329203 h 6.538721 v 1.321345 h -2.660246 v 0.77145 c 0.825236,3e-6 1.650538,0 2.475771,0 v 1.31427 h -2.145598 c 0.117266,0.234297 0.260716,0.456161 0.430142,0.656284 0.578729,0.705355 1.478299,1.032497 2.351429,1.186393 -0.359222,0.331786 -0.66693,0.719636 -0.88321,1.159531 -0.0626,0.128729 -0.248972,-0.0419 -0.364631,-0.04114 -0.987271,-0.27731 -1.865563,-0.927559 -2.394797,-1.808737 -0.05261,-0.07808 -0.107566,0.139743 -0.166789,0.183823 -0.639319,0.921404 -1.696914,1.435595 -2.746983,1.738906 -0.174531,-0.442354 -0.483687,-0.810933 -0.817961,-1.141979 0.291501,-0.08802 0.584928,-0.170665 0.869057,-0.280908 0.780594,-0.283315 1.54927,-0.837314 1.850146,-1.65217 h -2.122928 v -1.31427 c 0.774921,0 1.549782,3e-6 2.3247,0 v -0.77145 h -2.536823 v -1.201329 z m -2.131575,3.43222 c 0.83169,1.440636 1.663283,2.881372 2.495026,4.321977 0.0995,0.171517 0.19827,0.343402 0.297549,0.515047 0.318941,0.55242 0.637906,1.104865 0.956846,1.657284 0.154143,0.266693 0.308045,0.533963 0.462238,0.800927 0.40755,0.70607 0.815134,1.412143 1.222689,2.118212 0.226848,-0.392332 0.453222,-0.785041 0.679863,-1.177479 0.28378,-0.491584 0.567585,-0.983071 0.851374,-1.474645 h 2.309503 c -1.280027,2.217273 -2.560163,4.434408 -3.840218,6.651663 -0.03679,-0.06373 -0.07353,-0.127431 -0.110319,-0.19116 -1.284331,-2.224564 -2.568565,-4.449124 -3.852927,-6.673672 -0.394233,-0.682925 -0.788706,-1.365787 -1.182854,-2.048768 -0.479662,-0.830994 -0.959698,-1.662141 -1.439525,-2.493194 -0.0036,-0.0041 -0.004,-0.0081 -1.31e-4,-0.0122 0.383643,-0.664649 0.767214,-1.329369 1.150886,-1.994005 z m 13.399357,0 c 1.264292,2.189893 2.528608,4.379764 3.792918,6.569641 H 44.601462 c -0.01226,-0.02125 -0.02453,-0.04243 -0.03681,-0.06368 -0.372583,-0.645302 -0.745153,-1.290669 -1.117739,-1.935962 h 10.869742 c -0.239781,-0.41474 -0.479172,-0.829724 -0.718778,-1.244564 -0.255192,-0.441961 -0.510344,-0.883853 -0.765555,-1.325798 0.38472,-0.666524 0.76945,-1.333114 1.15416,-1.999641 z" />
      <path
         style="fill:#ffffff;stroke-width:0.0794641"
         d="m 42.366375,96.319847 -3.575233,-3.575894 h 3.021443 3.021446 l 0.551989,0.556252 c 0.303592,0.305936 0.570827,0.555732 0.593851,0.555098 0.02303,-6.24e-4 3.242285,-3.180448 7.153917,-7.066256 l 7.11205,-7.065108 0.02085,2.952832 0.02085,2.952829 -7.132735,7.133069 c -3.923007,3.923188 -7.150843,7.13307 -7.172968,7.13307 -0.02213,0 -1.649086,-1.609151 -3.615462,-3.575892 z M 26.67218,86.844284 v -5.105028 l 2.145536,2.144431 2.145535,2.14443 v 0.815062 0.815062 h 10.05223 c 5.528731,0 10.052236,0.02771 10.052236,0.06159 0,0.03388 -0.940226,0.999369 -2.089389,2.145536 l -2.089387,2.083941 H 36.780559 26.67218 Z m 28.527675,5.045455 c 0,-0.03341 0.938922,-0.999168 2.08649,-2.146125 l 2.086488,-2.085373 h 0.853689 0.85369 V 77.606008 c 0,-5.528725 0.02706,-10.05223 0.06016,-10.05223 0.03309,0 0.998716,0.939056 2.145841,2.086796 l 2.085682,2.086794 -0.02016,10.091107 -0.02016,10.091104 -5.065848,0.02044 c -2.786215,0.01123 -5.065847,-0.0069 -5.065847,-0.04029 z M 25.81777,79.771246 c -3.90061,-3.900796 -7.092019,-7.128185 -7.092019,-7.171985 0,-0.0438 1.609152,-1.688481 3.575893,-3.65486 l 3.575892,-3.575229 v 3.021442 3.021443 l -0.55625,0.551989 c -0.305938,0.303592 -0.556249,0.588629 -0.556249,0.633418 0,0.04479 3.191408,3.272986 7.09202,7.173782 l 7.092019,7.09235 h -3.019641 -3.019642 z m 40.348157,-3.000754 v -2.983031 l 0.556249,-0.551986 c 0.305939,-0.303594 0.556249,-0.588632 0.556249,-0.63342 0,-0.04479 -3.191408,-3.272987 -7.092019,-7.173782 l -7.09202,-7.092351 h 3.01081 3.010809 l 7.100852,7.110643 c 3.905471,3.910854 7.100852,7.12066 7.100852,7.132907 0,0.01223 -1.609151,1.631415 -3.575891,3.598156 l -3.575891,3.575891 z M 28.757553,75.559253 26.67218,73.472763 V 63.361485 53.250208 h 5.085712 c 2.797145,0 5.085716,0.01033 5.085716,0.02296 0,0.01263 -0.956552,0.977933 -2.125671,2.145124 l -2.125671,2.122165 -0.814506,4.05e-4 -0.814509,4.37e-4 v 10.052233 c 0,5.528728 -0.02706,10.05223 -0.06016,10.05223 -0.03309,0 -0.998579,-0.938919 -2.145536,-2.086487 z M 31.757892,62.507465 V 59.487821 L 38.850246,52.3958 c 3.900792,-3.900611 7.128189,-7.09202 7.171982,-7.09202 0.0438,0 1.688484,1.609152 3.65486,3.575893 l 3.575229,3.575892 h -3.021439 -3.021443 l -0.551986,-0.55625 c -0.303595,-0.305937 -0.588635,-0.55625 -0.633417,-0.55625 -0.04479,0 -3.272994,3.19141 -7.173786,7.092021 l -7.092354,7.09202 z m 31.435291,-1.171766 -2.114186,-2.085938 6.25e-4,-0.854241 6.24e-4,-0.854241 h -10.05223 c -5.528728,0 -10.052234,-0.02707 -10.052234,-0.06016 0,-0.03309 0.938919,-0.998579 2.086491,-2.145535 l 2.086488,-2.085375 h 10.111278 10.111278 v 5.085714 c 0,2.797141 -0.01439,5.085712 -0.03196,5.085712 -0.01757,0 -0.983339,-0.938672 -2.146144,-2.085935 z"
         id="path14397" />
      <path
         d="m 96.591003,78.475494 -7.081507,-8.949918 6.689372,-7.196841 h -4.152024 l -7.150708,7.542843 v -7.542843 h -3.713755 v 16.146759 h 3.713755 v -4.082823 l 2.168279,-2.260546 5.166963,6.343369 z m 16.931027,0 -7.21991,-16.146759 h -3.69069 l -7.196841,16.146759 h 3.829088 l 1.430143,-3.460019 h 7.49671 l 1.43014,3.460019 z m -9.08832,-12.479138 2.56041,6.181902 h -5.12083 z m 21.45213,8.880718 c -0.94574,0.507469 -1.89147,0.692004 -2.90641,0.692004 -3.09095,0 -5.23617,-2.145213 -5.23617,-5.166963 0,-3.067885 2.14522,-5.166963 5.2823,-5.166963 1.63774,0 2.99868,0.57667 4.17509,1.822277 l 2.39895,-2.214413 c -1.56854,-1.822277 -3.92136,-2.791083 -6.75857,-2.791083 -5.1439,0 -8.88072,3.483087 -8.88072,8.350182 0,4.867094 3.73682,8.350181 8.81152,8.350181 2.30668,0 4.75176,-0.715071 6.5279,-2.052945 V 70.14838 h -3.41389 z m 10.58766,-3.137085 h 7.49671 v -2.906417 h -7.49671 v -3.506153 h 8.48858 v -2.998684 h -12.20233 v 16.146759 h 12.5022 V 75.47681 h -8.78845 z m 17.06942,7.012307 c 4.61336,0 6.85084,-2.30668 6.85084,-5.005495 0,-5.928168 -9.38819,-3.875223 -9.38819,-6.85084 0,-1.014939 0.85347,-1.845344 3.06789,-1.845344 1.43014,0 2.97561,0.415203 4.47496,1.268674 l 1.15334,-2.837216 c -1.49935,-0.945739 -3.57536,-1.430142 -5.60524,-1.430142 -4.59029,0 -6.8047,2.283613 -6.8047,5.028563 0,5.997367 9.38819,3.921355 9.38819,6.943106 0,0.991873 -0.89961,1.73001 -3.11402,1.73001 -1.93761,0 -3.96749,-0.692004 -5.32843,-1.683876 l -1.26868,2.814149 c 1.43014,1.107207 4.01363,1.868411 6.57404,1.868411 z m 13.12502,-7.012307 h 7.49671 v -2.906417 h -7.49671 v -3.506153 h 8.48858 v -2.998684 h -12.20233 v 16.146759 h 12.5022 V 75.47681 h -8.78845 z m 22.88226,0.392136 -8.02725,-9.80339 H 178.432 v 16.146759 h 3.69069 v -9.803389 l 8.05031,9.803389 h 3.06788 V 62.328735 h -3.69068 z m 12.82515,6.620171 c 4.61336,0 6.85084,-2.30668 6.85084,-5.005495 0,-5.928168 -9.38819,-3.875223 -9.38819,-6.85084 0,-1.014939 0.85347,-1.845344 3.06789,-1.845344 1.43014,0 2.97561,0.415203 4.47495,1.268674 l 1.15334,-2.837216 c -1.49934,-0.945739 -3.57535,-1.430142 -5.60523,-1.430142 -4.59029,0 -6.8047,2.283613 -6.8047,5.028563 0,5.997367 9.38818,3.921355 9.38818,6.943106 0,0.991873 -0.8996,1.73001 -3.11401,1.73001 -1.93762,0 -3.96749,-0.692004 -5.32843,-1.683876 l -1.26868,2.814149 c 1.43014,1.107207 4.01362,1.868411 6.57404,1.868411 z m 20.48333,-10.057124 h -7.33524 v -6.366437 h -3.73683 v 16.146759 h 3.73683 v -6.620171 h 7.33524 v 6.620171 h 3.73682 V 62.328735 h -3.73682 z m 11.30274,9.780322 V 62.328735 h -3.73682 v 16.146759 z m 4.93627,0.184535 c 1.24561,0 2.23748,-0.945739 2.23748,-2.260547 0,-1.337874 -0.99187,-2.214412 -2.23748,-2.214412 -1.2456,0 -2.23748,0.876538 -2.23748,2.214412 0,1.314808 0.99188,2.260547 2.23748,2.260547 z m 12.29458,0.09227 c 5.0747,0 8.83458,-3.52922 8.83458,-8.350181 0,-4.820961 -3.75988,-8.350182 -8.83458,-8.350182 -5.09776,0 -8.83458,3.552287 -8.83458,8.350182 0,4.797894 3.73682,8.350181 8.83458,8.350181 z m 0,-3.183218 c -2.88335,0 -5.05163,-2.099079 -5.05163,-5.166963 0,-3.067885 2.16828,-5.166963 5.05163,-5.166963 2.88335,0 5.05163,2.099078 5.05163,5.166963 0,3.067884 -2.16828,5.166963 -5.05163,5.166963 z m 22.32867,-2.283613 c 2.09908,-0.899606 3.32162,-2.675749 3.32162,-5.097763 0,-3.621488 -2.69882,-5.858967 -7.01231,-5.858967 h -6.98924 v 16.146759 h 3.73682 v -4.498025 h 3.25242 0.18453 l 3.11402,4.498025 h 4.01362 z m -0.46134,-5.097763 c 0,1.753077 -1.15334,2.814149 -3.43695,2.814149 h -3.04482 v -5.628299 h 3.04482 c 2.28361,0 3.43695,1.038006 3.43695,2.81415 z m 17.64611,6.689372 c -0.94574,0.507469 -1.89148,0.692004 -2.90642,0.692004 -3.09095,0 -5.23616,-2.145213 -5.23616,-5.166963 0,-3.067885 2.14521,-5.166963 5.28229,-5.166963 1.63775,0 2.99869,0.57667 4.17509,1.822277 l 2.39895,-2.214413 c -1.56854,-1.822277 -3.92135,-2.791083 -6.75857,-2.791083 -5.1439,0 -8.88072,3.483087 -8.88072,8.350182 0,4.867094 3.73682,8.350181 8.81152,8.350181 2.30668,0 4.75176,-0.715071 6.5279,-2.052945 V 70.14838 h -3.41388 z"
         id="text1"
         style="font-weight:bold;font-size:23.0668px;line-height:1.25;font-family:Montserrat;-inkscape-font-specification:'Montserrat, Bold';text-align:center;text-anchor:middle;stroke-width:0.865004;fill:#ffffff"
         aria-label="KAGESENSHI.ORG" />
    </g>
  </g>
</svg>
